<svg enable-background="new 0 0 20 20" viewBox="0 0 20 20" xmlns="http://www.w3.org/2000/svg"><path clip-rule="evenodd" d="m1 7c.55 0 1-.45 1-1v-4h4c.55 0 1-.45 1-1s-.45-1-1-1h-5c-.55 0-1 .45-1 1v5c0 .55.45 1 1 1zm5 1c0-.55-.45-1-1-1-.28 0-.53.11-.71.29l-2 2c-.18.18-.29.43-.29.71s.11.53.29.71l2 2c.18.18.43.29.71.29.55 0 1-.45 1-1 0-.28-.11-.53-.29-.71l-1.3-1.29 1.29-1.29c.19-.18.3-.43.3-.71zm2-2c.28 0 .53-.11.71-.29l1.29-1.3 1.29 1.29c.18.19.43.3.71.3.55 0 1-.45 1-1 0-.28-.11-.53-.29-.71l-2-2c-.18-.18-.43-.29-.71-.29s-.53.11-.71.29l-2 2c-.18.18-.29.43-.29.71 0 .55.45 1 1 1zm-2 12h-4v-4c0-.55-.45-1-1-1s-1 .45-1 1v5c0 .55.45 1 1 1h5c.55 0 1-.45 1-1s-.45-1-1-1zm8-6c0 .55.45 1 1 1 .28 0 .53-.11.71-.29l2-2c.18-.18.29-.43.29-.71s-.11-.53-.29-.71l-2-2c-.18-.18-.43-.29-.71-.29-.55 0-1 .45-1 1 0 .28.11.53.29.71l1.3 1.29-1.29 1.29c-.19.18-.3.43-.3.71zm5-12h-5c-.55 0-1 .45-1 1s.45 1 1 1h4v4c0 .55.45 1 1 1s1-.45 1-1v-5c0-.55-.45-1-1-1zm-7 14c-.28 0-.53.11-.71.29l-1.29 1.3-1.29-1.29c-.18-.19-.43-.3-.71-.3-.55 0-1 .45-1 1 0 .28.11.53.29.71l2 2c.18.18.43.29.71.29s.53-.11.71-.29l2-2c.18-.18.29-.43.29-.71 0-.55-.45-1-1-1zm7-1c-.55 0-1 .45-1 1v4h-4c-.55 0-1 .45-1 1s.45 1 1 1h5c.55 0 1-.45 1-1v-5c0-.55-.45-1-1-1z" fill-rule="evenodd"/></svg>